<svg width="118" height="118" viewBox="0 0 118 118" fill="none" xmlns="http://www.w3.org/2000/svg">
<path d="M30.9218 0.0050155C30.0052 0.172188 29.1622 0.617448 28.5073 1.28032L1.27659 28.511C0.858392 28.9434 0.530293 29.4544 0.311359 30.0147C0.092424 30.5748 -0.0129793 31.1729 0.00127481 31.7742V108.928C0.00127481 113.889 4.11766 118.005 9.0782 118.005H108.924C113.885 118.005 118.001 113.889 118.001 108.928V9.08194C118.001 4.1214 113.885 0.0050155 108.924 0.0050155H31.7705C31.6284 -0.00167183 31.4861 -0.00167183 31.3439 0.0050155C31.2033 -0.00153023 31.0624 -0.00153023 30.9218 0.0050155ZM33.7583 9.08194H108.924V108.928H9.0782V33.7575L33.7583 9.08194ZM39.9988 13.6204C39.0821 13.7875 38.2391 14.2328 37.5843 14.8957L14.892 37.588C14.4737 38.0203 14.1457 38.5314 13.9268 39.0916C13.7078 39.6517 13.6024 40.2499 13.6166 40.8512V99.8512C13.6166 101.055 14.0948 102.209 14.946 103.06C15.7971 103.911 16.9515 104.39 18.1551 104.39H99.8474C101.051 104.39 102.205 103.911 103.057 103.06C103.908 102.209 104.386 101.055 104.386 99.8512C104.386 98.6475 103.908 97.4931 103.057 96.642C102.205 95.7909 101.051 95.3127 99.8474 95.3127H22.6936V42.8345L42.8353 22.6973H95.309V81.6973H36.309V47.373L47.3738 36.3127H81.6936V59.005H72.6166V51.0627C72.6166 50.7618 72.4971 50.4732 72.2843 50.2604C72.0716 50.0477 71.783 49.928 71.4821 49.928H46.5205C46.2196 49.928 45.931 50.0477 45.7183 50.2604C45.5055 50.4732 45.3859 50.7618 45.3859 51.0627V76.0242C45.3859 76.6505 45.8943 77.1588 46.5205 77.1588H71.4821C71.783 77.1588 72.0716 77.0393 72.2843 76.8265C72.4971 76.6137 72.6166 76.3251 72.6166 76.0242V68.082H86.2321C87.4358 68.082 88.59 67.6038 89.4413 66.7527C90.2924 65.9015 90.7705 64.7472 90.7705 63.5435V31.7742C90.7705 30.5705 90.2924 29.4163 89.4413 28.565C88.59 27.7139 87.4358 27.2358 86.2321 27.2358H45.3859C44.7846 27.2216 44.1865 27.3269 43.6263 27.5458C43.0662 27.7648 42.555 28.0929 42.1228 28.511L28.5073 42.1265C28.0892 42.5588 27.761 43.0699 27.5421 43.63C27.3232 44.1902 27.2177 44.7884 27.2321 45.3897V86.2358C27.2321 87.4395 27.7102 88.5939 28.5613 89.445C29.4124 90.2961 30.5668 90.7742 31.7705 90.7742H99.8474C101.051 90.7742 102.205 90.2961 103.057 89.445C103.908 88.5939 104.386 87.4395 104.386 86.2358V18.1588C104.386 16.9552 103.908 15.8008 103.057 14.9497C102.205 14.0986 101.051 13.6204 99.8474 13.6204H40.8474C40.7053 13.6137 40.5629 13.6137 40.4208 13.6204C40.2787 13.6137 40.1364 13.6137 39.9943 13.6204H39.9988Z" fill="#202225"/>
</svg>
